HIERARCHY
ROOT Hips
{
	OFFSET 0.000000 83.214638 0.000000
	CHANNELS 6 Xposition Yposition Zposition Xrotation Yrotation Zrotation
	JOINT Pelvis
	{
		OFFSET 0.000000 0.000000 0.000000
		CHANNELS 3 Xrotation Yrotation Zrotation
		JOINT LeftUpLeg
		{
			OFFSET 8.479700 -4.795502 -0.379100
			CHANNELS 3 Xrotation Yrotation Zrotation
			JOINT LeftLeg
			{
				OFFSET 0.024144 -32.555107 0.112900
				CHANNELS 3 Xrotation Yrotation Zrotation
				JOINT LeftFoot
				{
					OFFSET -0.024144 -32.638630 -3.012600
					CHANNELS 3 Xrotation Yrotation Zrotation
					JOINT LeftToeBase
					{
						OFFSET 0.970200 -13.225400 11.864200
						CHANNELS 3 Xrotation Yrotation Zrotation
						End Site
						{
							OFFSET 0.000000 12.319262 0.000000
						}
					}
					JOINT LFootTongue
					{
						OFFSET 1.142400 -1.059800 6.665200
						CHANNELS 3 Xrotation Yrotation Zrotation
						End Site
						{
							OFFSET 0.000000 12.319262 0.000000
						}
					}
				}
				JOINT LeftPantLeg
				{
					OFFSET 0.918482 -16.533964 -2.284700
					CHANNELS 3 Xrotation Yrotation Zrotation
					End Site
					{
						OFFSET 0.350399 24.744368 0.000000
					}
				}
			}
		}
		JOINT RightUpLeg
		{
			OFFSET -8.479700 -4.795502 -0.379100
			CHANNELS 3 Xrotation Yrotation Zrotation
			JOINT RightLeg
			{
				OFFSET -0.023144 -32.555092 0.112900
				CHANNELS 3 Xrotation Yrotation Zrotation
				JOINT RightFoot
				{
					OFFSET 0.023144 -32.638641 -3.012700
					CHANNELS 3 Xrotation Yrotation Zrotation
					JOINT RightToeBase
					{
						OFFSET -0.970200 -13.225400 11.864200
						CHANNELS 3 Xrotation Yrotation Zrotation
						End Site
						{
							OFFSET 0.000000 12.319244 0.000000
						}
					}
					JOINT RFootTongue
					{
						OFFSET -1.142200 -1.059800 6.665200
						CHANNELS 3 Xrotation Yrotation Zrotation
						End Site
						{
							OFFSET 0.000000 12.319243 0.000000
						}
					}
				}
				JOINT RightPantLeg
				{
					OFFSET -0.919482 -16.533978 -2.284800
					CHANNELS 3 Xrotation Yrotation Zrotation
					End Site
					{
						OFFSET -0.350400 24.744419 0.000000
					}
				}
			}
		}
	}
	JOINT Spine
	{
		OFFSET 0.000000 7.722000 1.166200
		CHANNELS 3 Xrotation Yrotation Zrotation
		JOINT Spine1
		{
			OFFSET 0.000000 12.024101 0.248800
			CHANNELS 3 Xrotation Yrotation Zrotation
			JOINT Spine2
			{
				OFFSET 0.000000 11.502998 -0.491200
				CHANNELS 3 Xrotation Yrotation Zrotation
				JOINT Neck
				{
					OFFSET 0.000000 18.430702 -3.123100
					CHANNELS 3 Xrotation Yrotation Zrotation
					JOINT Head
					{
						OFFSET 0.000000 9.051102 1.034000
						CHANNELS 3 Xrotation Yrotation Zrotation
						JOINT HairB
						{
							OFFSET 0.208400 24.786102 24.822300
							CHANNELS 3 Xrotation Yrotation Zrotation
							End Site
							{
								OFFSET 0.000000 32.263779 0.000000
							}
						}
						JOINT HairA
						{
							OFFSET -7.081100 24.428299 23.196600
							CHANNELS 3 Xrotation Yrotation Zrotation
							End Site
							{
								OFFSET 0.000000 32.263779 0.000000
							}
						}
						JOINT Hat
						{
							OFFSET 16.728800 15.048294 -15.439601
							CHANNELS 3 Xrotation Yrotation Zrotation
							End Site
							{
								OFFSET 0.000000 32.263779 0.000000
							}
						}
					}
				}
				JOINT LeftShoulder
				{
					OFFSET 6.197800 13.665199 -4.064700
					CHANNELS 3 Xrotation Yrotation Zrotation
					JOINT LeftArm
					{
						OFFSET 7.778100 -0.187103 -1.709300
						CHANNELS 3 Xrotation Yrotation Zrotation
						JOINT LeftForeArm
						{
							OFFSET 22.049376 0.000000 0.000000
							CHANNELS 3 Xrotation Yrotation Zrotation
							JOINT LeftHand
							{
								OFFSET 23.009392 0.000000 0.000000
								CHANNELS 3 Xrotation Yrotation Zrotation
								JOINT LeftHandThumb1
								{
									OFFSET 3.507191 -2.063065 3.133727
									CHANNELS 3 Xrotation Yrotation Zrotation
									JOINT LeftHandThumb2
									{
										OFFSET 3.101337 -1.790558 1.790558
										CHANNELS 3 Xrotation Yrotation Zrotation
										JOINT LeftHandThumb3
										{
											OFFSET 3.058640 -1.765907 1.765906
											CHANNELS 3 Xrotation Yrotation Zrotation
											End Site
											{
												OFFSET -0.415260 3.926476 -0.049563
											}
										}
									}
								}
								JOINT LeftHandIndex1
								{
									OFFSET 11.334419 -0.901459 3.706815
									CHANNELS 3 Xrotation Yrotation Zrotation
									JOINT LeftHandIndex2
									{
										OFFSET 3.283112 0.000000 0.000000
										CHANNELS 3 Xrotation Yrotation Zrotation
										JOINT LeftHandIndex3
										{
											OFFSET 3.323853 0.000000 0.000000
											CHANNELS 3 Xrotation Yrotation Zrotation
											End Site
											{
												OFFSET -1.135597 3.097809 0.402452
											}
										}
									}
								}
								JOINT LeftHandMiddle1
								{
									OFFSET 11.335861 0.000000 0.000000
									CHANNELS 3 Xrotation Yrotation Zrotation
									JOINT LeftHandMiddle2
									{
										OFFSET 3.410492 0.000000 0.000000
										CHANNELS 3 Xrotation Yrotation Zrotation
										JOINT LeftHandMiddle3
										{
											OFFSET 3.312172 0.000000 0.000000
											CHANNELS 3 Xrotation Yrotation Zrotation
											End Site
											{
												OFFSET -1.150200 3.080154 0.400270
											}
										}
									}
								}
								JOINT LeftHandRing1
								{
									OFFSET 11.514786 -0.013176 -3.003090
									CHANNELS 3 Xrotation Yrotation Zrotation
									JOINT LeftHandRing2
									{
										OFFSET 3.053307 0.000000 0.000000
										CHANNELS 3 Xrotation Yrotation Zrotation
										JOINT LeftHandRing3
										{
											OFFSET 3.295807 0.000000 0.000000
											CHANNELS 3 Xrotation Yrotation Zrotation
											End Site
											{
												OFFSET -1.281006 3.013344 0.375733
											}
										}
									}
								}
								JOINT LeftHandPinky1
								{
									OFFSET 10.518692 -0.960396 -5.730441
									CHANNELS 3 Xrotation Yrotation Zrotation
									JOINT LeftHandPinky2
									{
										OFFSET 2.861649 0.000000 0.000000
										CHANNELS 3 Xrotation Yrotation Zrotation
										JOINT LeftHandPinky3
										{
											OFFSET 2.863380 0.000000 0.000000
											CHANNELS 3 Xrotation Yrotation Zrotation
											End Site
											{
												OFFSET -0.843597 2.711159 0.369971
											}
										}
									}
								}
							}
							JOINT LSleeve
							{
								OFFSET 6.676277 -0.344902 -1.011730
								CHANNELS 3 Xrotation Yrotation Zrotation
								End Site
								{
									OFFSET 0.000000 14.885353 0.000000
								}
							}
						}
					}
				}
				JOINT RightShoulder
				{
					OFFSET -6.197800 13.665199 -4.064700
					CHANNELS 3 Xrotation Yrotation Zrotation
					JOINT RightArm
					{
						OFFSET -7.778100 -0.187103 -1.709300
						CHANNELS 3 Xrotation Yrotation Zrotation
						JOINT RightForeArm
						{
							OFFSET -22.049376 0.000000 0.000000
							CHANNELS 3 Xrotation Yrotation Zrotation
							JOINT RightHand
							{
								OFFSET -23.009392 0.000000 0.000000
								CHANNELS 3 Xrotation Yrotation Zrotation
								JOINT RightHandThumb1
								{
									OFFSET -3.507191 -2.063065 3.133727
									CHANNELS 3 Xrotation Yrotation Zrotation
									JOINT RightHandThumb2
									{
										OFFSET -3.101337 -1.790558 1.790558
										CHANNELS 3 Xrotation Yrotation Zrotation
										JOINT RightHandThumb3
										{
											OFFSET -3.058640 -1.765907 1.765906
											CHANNELS 3 Xrotation Yrotation Zrotation
											End Site
											{
												OFFSET 0.415260 3.926476 -0.049563
											}
										}
									}
								}
								JOINT RightHandIndex1
								{
									OFFSET -11.334419 -0.901459 3.706815
									CHANNELS 3 Xrotation Yrotation Zrotation
									JOINT RightHandIndex2
									{
										OFFSET -3.283112 0.000000 0.000000
										CHANNELS 3 Xrotation Yrotation Zrotation
										JOINT RightHandIndex3
										{
											OFFSET -3.323853 0.000000 0.000000
											CHANNELS 3 Xrotation Yrotation Zrotation
											End Site
											{
												OFFSET 1.135597 3.097809 0.402452
											}
										}
									}
								}
								JOINT RightHandMiddle1
								{
									OFFSET -11.335861 0.000000 0.000000
									CHANNELS 3 Xrotation Yrotation Zrotation
									JOINT RightHandMiddle2
									{
										OFFSET -3.410492 0.000000 0.000000
										CHANNELS 3 Xrotation Yrotation Zrotation
										JOINT RightHandMiddle3
										{
											OFFSET -3.312172 0.000000 0.000000
											CHANNELS 3 Xrotation Yrotation Zrotation
											End Site
											{
												OFFSET 1.150200 3.080154 0.400270
											}
										}
									}
								}
								JOINT RightHandRing1
								{
									OFFSET -11.514786 -0.013176 -3.003090
									CHANNELS 3 Xrotation Yrotation Zrotation
									JOINT RightHandRing2
									{
										OFFSET -3.053307 0.000000 0.000000
										CHANNELS 3 Xrotation Yrotation Zrotation
										JOINT RightHandRing3
										{
											OFFSET -3.295807 0.000000 0.000000
											CHANNELS 3 Xrotation Yrotation Zrotation
											End Site
											{
												OFFSET 1.281006 3.013344 0.375733
											}
										}
									}
								}
								JOINT RightHandPinky1
								{
									OFFSET -10.518692 -0.960396 -5.730441
									CHANNELS 3 Xrotation Yrotation Zrotation
									JOINT RightHandPinky2
									{
										OFFSET -2.861649 0.000000 0.000000
										CHANNELS 3 Xrotation Yrotation Zrotation
										JOINT RightHandPinky3
										{
											OFFSET -2.863380 0.000000 0.000000
											CHANNELS 3 Xrotation Yrotation Zrotation
											End Site
											{
												OFFSET 0.843597 2.711159 0.369971
											}
										}
									}
								}
							}
							JOINT RSleeve
							{
								OFFSET -6.676277 -0.344902 -1.011730
								CHANNELS 3 Xrotation Yrotation Zrotation
								End Site
								{
									OFFSET 0.000000 14.885353 0.000000
								}
							}
						}
					}
				}
				JOINT Backpack
				{
					OFFSET 0.000000 -2.471497 36.677502
					CHANNELS 3 Xrotation Yrotation Zrotation
					End Site
					{
						OFFSET 0.000000 20.427315 0.000000
					}
				}
				JOINT Hood
				{
					OFFSET 0.000000 18.754097 -10.431000
					CHANNELS 3 Xrotation Yrotation Zrotation
					JOINT Hood1
					{
						OFFSET 0.000000 -5.011002 -7.685901
						CHANNELS 3 Xrotation Yrotation Zrotation
						End Site
						{
							OFFSET 0.000000 9.175140 0.000000
						}
					}
				}
				JOINT LHoodieString
				{
					OFFSET 5.250500 16.397697 3.089900
					CHANNELS 3 Xrotation Yrotation Zrotation
					JOINT LHoodieString1
					{
						OFFSET 0.257700 -6.364304 3.694600
						CHANNELS 3 Xrotation Yrotation Zrotation
						JOINT LHoodieString2
						{
							OFFSET 0.000000 -9.643799 2.679100
							CHANNELS 3 Xrotation Yrotation Zrotation
							End Site
							{
								OFFSET 0.000000 10.009018 0.000000
							}
						}
					}
				}
				JOINT RHoodieString
				{
					OFFSET -5.250500 16.397697 3.089900
					CHANNELS 3 Xrotation Yrotation Zrotation
					JOINT RHoodieString1
					{
						OFFSET -0.257700 -6.364304 3.694600
						CHANNELS 3 Xrotation Yrotation Zrotation
						JOINT RHoodieString2
						{
							OFFSET 0.000000 -9.643799 2.679100
							CHANNELS 3 Xrotation Yrotation Zrotation
							End Site
							{
								OFFSET 0.000000 10.009018 0.000000
							}
						}
					}
				}
			}
			JOINT LBackpack_Strap
			{
				OFFSET 15.223200 -7.719803 -6.610900
				CHANNELS 3 Xrotation Yrotation Zrotation
				End Site
				{
					OFFSET 0.000000 16.040596 0.000000
				}
			}
			JOINT RBackpack_Strap
			{
				OFFSET -15.223000 -7.719803 -6.610900
				CHANNELS 3 Xrotation Yrotation Zrotation
				End Site
				{
					OFFSET 0.000000 16.040596 0.000000
				}
			}
		}
	}
	JOINT BoyFacialAnim_Joint
	{
		OFFSET 1.000000 -82.208099 -1.550900
		CHANNELS 3 Xrotation Yrotation Zrotation
		End Site
		{
			OFFSET 0.000000 30.012791 0.000000
		}
	}
}
MOTION
Frames: 4
Frame Time: 0.033333
0.182377 90.645943 -2.446865 -23.091403 -5.572954 -1.654433 0.000001 0.000000 0.000000 -91.176667 8.636974 31.909005 123.978220 -20.816895 0.204736 -29.367484 -3.961214 12.844031 -0.000000 0.000000 -0.000000 -0.000000 0.000000 0.000000 -0.000000 0.000000 0.000001 -108.502910 -5.140662 -37.236538 128.564951 23.496752 -1.658399 -23.833003 0.225717 -1.301277 -0.000002 0.000000 0.000002 -0.000002 0.000000 0.000002 0.000001 0.000000 -0.000002 7.685055 -1.061868 -0.525308 15.374177 -1.679078 -0.549609 15.374175 -1.679084 -0.549609 -11.803084 2.538417 0.513535 -20.543609 1.060036 1.922754 -0.000001 0.000001 0.000000 -0.000001 0.000001 0.000000 -0.000001 0.000001 0.000000 -0.118022 -1.799421 36.289423 -52.783244 -25.523942 -11.661693 -14.597033 -27.801530 2.181362 12.412381 -2.032571 43.220860 -11.357379 -10.016627 28.400961 19.621723 23.754886 -10.342518 -0.000000 -0.000000 -0.000000 -7.846116 -3.448204 -67.091302 -4.890354 2.724767 -36.316556 -0.000000 0.000001 -0.000002 -10.124593 -3.879850 -67.774376 -1.770912 1.712512 -28.157817 0.000002 -0.000000 0.000000 -15.178357 7.292349 -70.201408 7.764264 -0.417631 -31.520466 -0.000001 0.000001 -0.000000 -16.479846 5.438606 -74.873565 8.336591 -0.183742 -18.884092 0.000003 0.000000 -0.000002 0.000000 -0.000001 0.000005 9.813632 24.196324 -37.946065 -46.242208 23.161305 -4.673690 -22.075475 26.224264 3.020042 0.659308 10.544200 -45.154049 15.333560 1.500909 -10.491465 -10.396821 -3.067558 -10.223916 0.000000 0.000001 -0.000003 0.921504 3.494210 64.452090 1.727766 9.561649 38.866300 0.000001 0.000001 0.000000 -6.656385 -3.913228 64.485018 9.405142 5.986790 38.253752 0.000003 0.000002 -0.000002 -5.547490 1.396443 64.784467 0.229946 -1.792498 39.151939 -0.000000 0.000001 0.000002 -17.806028 -16.568434 61.042999 25.330643 3.865444 27.746901 0.000000 0.000000 0.000002 0.000001 -0.000000 0.000000 0.000000 0.000000 -0.000000 0.000000 0.000000 -0.000000 0.000000 0.000000 -0.000000 0.000000 0.000000 -0.000000 0.000000 0.000000 -0.000000 -0.000002 0.000000 -0.000000 0.000000 0.000000 -0.000000 0.000000 0.000000 -0.000000 -0.000002 0.000000 -0.000000 0.000000 -0.000000 -0.000000 0.000000 -0.000000 -0.000000 0.000001 0.000000 0.000000 
0.201337 90.692528 -2.450312 -23.108137 -5.582445 -1.690124 -0.000002 -0.000000 0.000000 -91.036484 8.685864 31.887759 123.891790 -20.711331 0.194164 -29.533243 -3.983289 12.881109 0.000001 0.000000 -0.000001 0.000001 0.000000 -0.000001 -0.000002 -0.000000 -0.000002 -108.377214 -5.205537 -37.177027 128.497797 23.386863 -1.650355 -23.887567 0.241142 -1.336528 -0.000001 -0.000001 -0.000000 -0.000001 -0.000001 -0.000000 -0.000001 -0.000000 0.000001 7.677977 -1.058999 -0.510867 15.360228 -1.671462 -0.519520 15.360226 -1.671464 -0.519520 -11.650587 2.539007 0.605865 -20.510483 1.149625 1.856232 -0.000002 -0.000000 -0.000000 -0.000002 -0.000000 -0.000000 -0.000002 -0.000000 -0.000000 -0.007054 -1.973080 35.936839 -52.703259 -25.665264 -11.367331 -14.479267 -27.870307 2.191613 12.408178 -1.936258 43.211028 -11.359766 -9.996200 28.402836 19.613180 23.728099 -10.335669 0.000001 0.000001 -0.000001 -7.846707 -3.448418 -67.053292 -4.889607 2.725605 -36.382184 -0.000000 -0.000000 -0.000005 -10.123644 -3.879468 -67.762177 -1.772103 1.710259 -28.188686 0.000000 -0.000000 -0.000001 -15.175888 7.293231 -70.171294 7.764807 -0.416728 -31.508366 0.000000 -0.000001 -0.000001 -16.479839 5.438618 -74.873661 8.336597 -0.183728 -18.884090 0.000001 0.000000 -0.000002 -0.000000 0.000000 -0.000003 10.090584 24.262662 -38.024694 -46.216284 23.032808 -4.820393 -22.121164 26.333953 2.984796 0.658316 10.496296 -45.147540 15.433782 1.613686 -10.499240 -10.440952 -3.077654 -10.309627 -0.000000 0.000001 -0.000000 0.922118 3.492302 64.416559 1.706161 9.574010 38.967062 -0.000001 -0.000003 0.000003 -6.655378 -3.913721 64.467546 9.405884 5.985864 38.234419 0.000002 0.000003 -0.000002 -5.543584 1.394600 64.745644 0.229937 -1.792459 39.151935 -0.000000 0.000000 -0.000001 -17.803235 -16.569919 61.026101 25.330644 3.865425 27.746899 0.000004 0.000003 -0.000001 0.000000 0.000001 -0.000007 0.000001 0.000000 -0.000000 0.000001 0.000000 -0.000000 0.000001 0.000000 -0.000000 0.000001 0.000000 -0.000000 0.000001 0.000000 0.000000 -0.000001 0.000000 -0.000000 0.000001 0.000000 -0.000000 0.000001 0.000000 0.000000 -0.000001 0.000000 -0.000000 0.000000 0.000001 0.000000 0.000000 0.000001 0.000000 -0.000002 -0.000000 0.000000 
0.217412 90.753654 -2.453751 -23.118814 -5.576666 -1.704567 -0.000001 -0.000000 -0.000000 -90.950136 8.732243 31.881506 123.810825 -20.687192 0.193515 -29.467519 -4.002303 12.918066 -0.000001 0.000000 -0.000001 -0.000001 0.000000 -0.000001 -0.000002 0.000000 0.000001 -108.261101 -5.263996 -37.151738 128.403212 23.178353 -1.639751 -23.912433 0.257212 -1.336752 -0.000003 -0.000000 -0.000001 -0.000003 -0.000000 -0.000001 -0.000000 0.000000 -0.000003 7.669604 -1.056483 -0.499513 15.343690 -1.665340 -0.496287 15.343685 -1.665339 -0.496287 -11.467213 2.547486 0.657568 -20.505604 1.228378 1.799700 -0.000001 -0.000000 -0.000000 -0.000001 -0.000000 -0.000000 -0.000001 -0.000000 -0.000000 0.125557 -2.173245 35.577038 -52.577710 -25.755667 -11.035625 -14.352843 -28.042023 2.201679 12.376617 -1.790548 43.208644 -11.392556 -9.963041 28.415653 19.631984 23.714246 -10.332132 -0.000000 -0.000000 0.000001 -7.846030 -3.448149 -67.096855 -4.889453 2.725764 -36.397839 -0.000001 0.000000 -0.000004 -10.121929 -3.878744 -67.738872 -1.772809 1.708985 -28.206899 0.000002 -0.000000 0.000000 -15.177703 7.292599 -70.193321 7.765122 -0.416239 -31.501235 -0.000001 0.000000 -0.000002 -16.476768 5.439444 -74.846586 8.336595 -0.183744 -18.884081 0.000000 0.000000 -0.000000 0.000000 0.000000 0.000001 10.160390 24.603170 -37.946441 -45.982893 22.840711 -5.106661 -22.029344 26.513534 3.100001 0.659800 10.397107 -45.216860 15.159368 1.403900 -10.503234 -10.382284 -3.088561 -10.148119 -0.000000 -0.000001 0.000000 0.923345 3.479910 64.315780 1.695349 9.580345 39.004236 -0.000002 0.000002 0.000004 -6.657456 -3.915581 64.431743 9.404911 5.987077 38.259646 0.000001 0.000001 0.000002 -5.543192 1.394412 64.741546 0.229936 -1.792474 39.151925 -0.000001 0.000001 0.000000 -17.796206 -16.573659 60.983494 25.330650 3.865429 27.746909 0.000004 0.000000 0.000002 0.000000 0.000000 -0.000001 -0.000000 0.000001 -0.000000 -0.000000 0.000001 -0.000000 -0.000000 0.000001 -0.000000 -0.000000 0.000001 -0.000000 -0.000000 0.000001 0.000000 -0.000001 -0.000000 0.000000 -0.000000 0.000001 -0.000000 -0.000000 0.000001 0.000000 -0.000001 -0.000000 0.000000 -0.000000 -0.000000 0.000000 -0.000000 -0.000000 0.000000 -0.000001 -0.000000 -0.000000 
0.224990 90.821487 -2.458057 -23.121288 -5.557356 -1.700579 0.000001 -0.000000 0.000000 -90.815233 8.799447 31.881568 123.709711 -20.748841 0.203380 -29.511752 -4.002766 12.913337 -0.000000 -0.000000 0.000001 -0.000000 -0.000000 0.000001 0.000001 0.000000 0.000001 -108.138656 -5.321617 -37.160686 128.321332 23.032392 -1.635444 -23.970682 0.274520 -1.362109 -0.000000 -0.000001 -0.000000 -0.000000 -0.000001 -0.000000 -0.000001 -0.000000 0.000000 7.655208 -1.056169 -0.496239 15.315021 -1.662043 -0.485304 15.315022 -1.662038 -0.485306 -11.234753 2.545739 0.699184 -20.506878 1.296491 1.737592 -0.000001 -0.000000 -0.000000 -0.000001 -0.000000 -0.000000 -0.000001 -0.000000 -0.000000 0.293447 -2.412371 35.220171 -52.427610 -25.838693 -10.663195 -14.219607 -28.227816 2.212260 12.340037 -1.637524 43.196753 -11.394977 -9.956444 28.415621 19.646759 23.728229 -10.333757 -0.000000 0.000001 0.000002 -7.846657 -3.448429 -67.056250 -4.889500 2.725724 -36.394158 -0.000000 -0.000000 -0.000002 -10.123965 -3.879606 -67.765968 -1.774926 1.705032 -28.261395 0.000001 0.000000 0.000000 -15.174524 7.293699 -70.154478 7.764954 -0.416494 -31.504879 -0.000001 0.000002 -0.000002 -16.476983 5.439369 -74.848505 8.336610 -0.183707 -18.883953 0.000001 0.000000 -0.000000 -0.000000 -0.000000 0.000004 10.452472 24.810768 -37.860073 -45.826755 22.653487 -5.486665 -22.001906 26.760135 3.142981 0.600995 10.261254 -45.248835 15.096963 1.281462 -10.490392 -10.349763 -3.088045 -10.086179 -0.000000 -0.000000 -0.000003 0.924621 3.481465 64.294893 1.697010 9.579275 39.005199 -0.000002 -0.000003 0.000001 -6.659163 -3.921049 64.302638 9.404988 5.987012 38.257870 -0.000000 -0.000000 0.000003 -5.537860 1.391904 64.688162 0.229940 -1.792469 39.151935 0.000000 0.000001 0.000002 -17.789950 -16.576956 60.945559 25.330662 3.865442 27.746897 -0.000001 0.000001 -0.000003 -0.000000 -0.000000 0.000001 0.000003 -0.000000 0.000000 0.000003 -0.000000 0.000000 0.000003 -0.000000 0.000000 0.000003 -0.000000 0.000000 0.000003 -0.000000 0.000000 0.000001 -0.000001 0.000000 0.000003 -0.000000 0.000000 0.000003 -0.000000 0.000000 0.000001 -0.000001 0.000000 -0.000000 0.000001 0.000000 -0.000000 0.000001 0.000000 0.000001 -0.000000 0.000000 
